<?xml version="1.0" standalone="no"?><!DOCTYPE svg PUBLIC "-//W3C//DTD SVG 1.1//EN" "http://www.w3.org/Graphics/SVG/1.1/DTD/svg11.dtd"><svg t="1582636280934" class="icon" viewBox="0 0 1024 1024" version="1.1" xmlns="http://www.w3.org/2000/svg" p-id="16209" xmlns:xlink="http://www.w3.org/1999/xlink" width="200" height="200"><defs><style type="text/css"></style></defs><path d="M957.477 497.787l-422.85-422.85c-12.445-12.445-32.81-12.445-45.255 0l-422.85 422.85c-11.667 11.667-11.667 30.759 0 42.427l2.828 2.828c11.667 11.667 30.759 11.667 42.426 0L161 493.819V896c0 35.29 28.71 64 64 64h574c35.29 0 64-28.71 64-64V493.819l49.222 49.222c11.667 11.667 30.759 11.667 42.426 0l2.828-2.828c11.669-11.667 11.669-30.759 0.001-42.426zM799 896H225V429.819l287-287 287 287V896z" fill="#2c2c2c" p-id="16210"></path><path d="M370.846 641.394c-8.342-15.58-27.734-21.447-43.316-13.104-15.58 8.343-21.447 27.736-13.104 43.316C353.531 744.634 429.237 790 512 790c82.764 0 158.47-45.366 197.574-118.394 8.343-15.58 2.476-34.973-13.104-43.316-15.581-8.344-34.974-2.475-43.315 13.104C625.209 693.581 571.122 726 512 726s-113.209-32.419-141.154-84.606z" fill="#2c2c2c" p-id="16211"></path></svg>